<mxfile host="app.diagrams.net" modified="2023-05-29T14:15:37.790Z" agent="Mozilla/5.0 (X11; Linux x86_64) AppleWebKit/537.36 (KHTML, like Gecko) Chrome/112.0.0.0 Safari/537.36" version="21.3.5" etag="Ovh_5Z3aLb8HNT9rl0gN" type="github">
  <diagram name="Page-1" id="WbX2yG9yFqHzW4wqfIt8">
    <mxGraphModel>
      <root>
        <mxCell id="0" />
        <mxCell id="1" parent="0" />
      </root>
    </mxGraphModel>
  </diagram>
</mxfile>
